<svg data-v-423bf9ae="" xmlns="http://www.w3.org/2000/svg" viewBox="0 0 341.0969298013 60" class="font"><!----><!----><defs data-v-423bf9ae=""><linearGradient data-v-423bf9ae="" gradientTransform="rotate(25)" id="ca5c8614-0c7e-496e-8525-17288f6aca17" x1="0%" y1="0%" x2="100%" y2="0%"><stop data-v-423bf9ae="" offset="0%" style="stop-color: rgb(240, 0, 121); stop-opacity: 1;"></stop><stop data-v-423bf9ae="" offset="100%" style="stop-color: rgb(242, 160, 65); stop-opacity: 1;"></stop></linearGradient></defs><g data-v-423bf9ae="" id="6329d712-4a5e-40f9-8b40-4ac3b3a76616" fill="url(#ca5c8614-0c7e-496e-8525-17288f6aca17)" transform="matrix(7.653061075540249,0,0,7.653061075540249,-2.9081598005658975,-44.6938778489195)"><path d="M8.61 9.77L8.61 9.77Q8.61 9.80 8.57 10.43L8.57 10.43L3.05 10.43L3.05 10.43Q3.22 11.02 3.70 11.33L3.70 11.33L3.70 11.33Q4.19 11.65 4.91 11.65L4.91 11.65L4.91 11.65Q5.46 11.65 5.86 11.49L5.86 11.49L5.86 11.49Q6.26 11.34 6.66 10.99L6.66 10.99L8.06 12.45L8.06 12.45Q6.96 13.68 4.83 13.68L4.83 13.68L4.83 13.68Q3.50 13.68 2.49 13.17L2.49 13.17L2.49 13.17Q1.48 12.67 0.93 11.77L0.93 11.77L0.93 11.77Q0.38 10.88 0.38 9.74L0.38 9.74L0.38 9.74Q0.38 8.62 0.92 7.73L0.92 7.73L0.92 7.73Q1.46 6.85 2.41 6.34L2.41 6.34L2.41 6.34Q3.36 5.84 4.55 5.84L4.55 5.84L4.55 5.84Q5.68 5.84 6.61 6.31L6.61 6.31L6.61 6.31Q7.53 6.78 8.07 7.66L8.07 7.66L8.07 7.66Q8.61 8.55 8.61 9.77L8.61 9.77ZM4.56 7.73L4.56 7.73Q3.95 7.73 3.54 8.08L3.54 8.08L3.54 8.08Q3.12 8.43 3.01 9.03L3.01 9.03L6.12 9.03L6.12 9.03Q6.01 8.43 5.59 8.08L5.59 8.08L5.59 8.08Q5.18 7.73 4.56 7.73L4.56 7.73ZM13.72 13.68L13.72 13.68Q12.46 13.68 11.47 13.17L11.47 13.17L11.47 13.17Q10.47 12.67 9.92 11.77L9.92 11.77L9.92 11.77Q9.37 10.88 9.37 9.74L9.37 9.74L9.37 9.74Q9.37 8.61 9.92 7.72L9.92 7.72L9.92 7.72Q10.47 6.83 11.47 6.33L11.47 6.33L11.47 6.33Q12.46 5.84 13.72 5.84L13.72 5.84L13.72 5.84Q15.01 5.84 15.95 6.39L15.95 6.39L15.95 6.39Q16.88 6.94 17.28 7.92L17.28 7.92L15.22 8.97L15.22 8.97Q14.70 7.95 13.71 7.95L13.71 7.95L13.71 7.95Q12.99 7.95 12.52 8.43L12.52 8.43L12.52 8.43Q12.05 8.90 12.05 9.74L12.05 9.74L12.05 9.74Q12.05 10.60 12.52 11.08L12.52 11.08L12.52 11.08Q12.99 11.56 13.71 11.56L13.71 11.56L13.71 11.56Q14.70 11.56 15.22 10.54L15.22 10.54L17.28 11.59L17.28 11.59Q16.88 12.57 15.95 13.13L15.95 13.13L15.95 13.13Q15.01 13.68 13.72 13.68L13.72 13.68ZM22.09 13.68L22.09 13.68Q20.87 13.68 19.89 13.17L19.89 13.17L19.89 13.17Q18.91 12.67 18.36 11.77L18.36 11.77L18.36 11.77Q17.81 10.88 17.81 9.74L17.81 9.74L17.81 9.74Q17.81 8.62 18.36 7.73L18.36 7.73L18.36 7.73Q18.91 6.83 19.89 6.33L19.89 6.33L19.89 6.33Q20.86 5.84 22.09 5.84L22.09 5.84L22.09 5.84Q23.32 5.84 24.30 6.33L24.30 6.33L24.30 6.33Q25.28 6.83 25.83 7.72L25.83 7.72L25.83 7.72Q26.38 8.61 26.38 9.74L26.38 9.74L26.38 9.74Q26.38 10.88 25.83 11.77L25.83 11.77L25.83 11.77Q25.28 12.67 24.30 13.17L24.30 13.17L24.30 13.17Q23.32 13.68 22.09 13.68L22.09 13.68ZM22.09 11.56L22.09 11.56Q22.79 11.56 23.24 11.08L23.24 11.08L23.24 11.08Q23.69 10.60 23.69 9.74L23.69 9.74L23.69 9.74Q23.69 8.90 23.24 8.43L23.24 8.43L23.24 8.43Q22.79 7.95 22.09 7.95L22.09 7.95L22.09 7.95Q21.39 7.95 20.94 8.43L20.94 8.43L20.94 8.43Q20.50 8.90 20.50 9.74L20.50 9.74L20.50 9.74Q20.50 10.60 20.94 11.08L20.94 11.08L20.94 11.08Q21.39 11.56 22.09 11.56L22.09 11.56ZM37.49 5.84L37.49 5.84Q38.89 5.84 39.72 6.68L39.72 6.68L39.72 6.68Q40.56 7.52 40.56 9.21L40.56 9.21L40.56 13.55L37.90 13.55L37.90 9.65L37.90 9.65Q37.90 8.85 37.60 8.47L37.60 8.47L37.60 8.47Q37.30 8.09 36.75 8.09L36.75 8.09L36.75 8.09Q36.15 8.09 35.78 8.51L35.78 8.51L35.78 8.51Q35.42 8.93 35.42 9.79L35.42 9.79L35.42 13.55L32.76 13.55L32.76 9.65L32.76 9.65Q32.76 8.09 31.61 8.09L31.61 8.09L31.61 8.09Q31.00 8.09 30.63 8.51L30.63 8.51L30.63 8.51Q30.27 8.93 30.27 9.79L30.27 9.79L30.27 13.55L27.61 13.55L27.61 5.96L30.14 5.96L30.14 6.76L30.14 6.76Q30.56 6.30 31.14 6.07L31.14 6.07L31.14 6.07Q31.72 5.84 32.41 5.84L32.41 5.84L32.41 5.84Q33.21 5.84 33.84 6.13L33.84 6.13L33.84 6.13Q34.47 6.43 34.86 7.03L34.86 7.03L34.86 7.03Q35.31 6.45 35.99 6.15L35.99 6.15L35.99 6.15Q36.68 5.84 37.49 5.84L37.49 5.84ZM43.36 13.68L43.36 13.68Q42.69 13.68 42.22 13.23L42.22 13.23L42.22 13.23Q41.76 12.78 41.76 12.10L41.76 12.10L41.76 12.10Q41.76 11.40 42.22 10.96L42.22 10.96L42.22 10.96Q42.67 10.53 43.36 10.53L43.36 10.53L43.36 10.53Q44.06 10.53 44.51 10.96L44.51 10.96L44.51 10.96Q44.95 11.40 44.95 12.10L44.95 12.10L44.95 12.10Q44.95 12.78 44.50 13.23L44.50 13.23L44.50 13.23Q44.04 13.68 43.36 13.68L43.36 13.68Z"></path></g><!----><!----></svg>